<?xml version="1.0" encoding="UTF-8" standalone="no"?>
<!-- Created with Inkscape (http://www.inkscape.org/) -->

<svg
   xmlns:dc="http://purl.org/dc/elements/1.1/"
   xmlns:cc="http://creativecommons.org/ns#"
   xmlns:rdf="http://www.w3.org/1999/02/22-rdf-syntax-ns#"
   xmlns:svg="http://www.w3.org/2000/svg"
   xmlns="http://www.w3.org/2000/svg"
   xmlns:sodipodi="http://sodipodi.sourceforge.net/DTD/sodipodi-0.dtd"
   xmlns:inkscape="http://www.inkscape.org/namespaces/inkscape"
   width="970"
   height="425"
   id="svg4871"
   version="1.1"
   inkscape:version="0.48.4 r9939"
   sodipodi:docname="drawing.svg">
  <defs
     id="defs4873" />
  <sodipodi:namedview
     id="base"
     pagecolor="#ffffff"
     bordercolor="#666666"
     borderopacity="1.0"
     inkscape:pageopacity="0.0"
     inkscape:pageshadow="2"
     inkscape:zoom="1.0008841"
     inkscape:cx="460.4236"
     inkscape:cy="135.92575"
     inkscape:document-units="px"
     inkscape:current-layer="layer1"
     showgrid="false"
     width="1920px"
     inkscape:window-width="1918"
     inkscape:window-height="1059"
     inkscape:window-x="1360"
     inkscape:window-y="19"
     inkscape:window-maximized="0" />
  <metadata
     id="metadata4876">
    <rdf:RDF>
      <cc:Work
         rdf:about="">
        <dc:format>image/svg+xml</dc:format>
        <dc:type
           rdf:resource="http://purl.org/dc/dcmitype/StillImage" />
        <dc:title />
      </cc:Work>
    </rdf:RDF>
  </metadata>
  <g
     inkscape:label="Layer 1"
     inkscape:groupmode="layer"
     id="layer1"
     transform="translate(0,-627.36218)">
    <path
       style="fill:#c4c1bc;fill-opacity:1;stroke:none"
       d="m 200.34377,636.46616 0,0.1875 C 89.681487,641.00842 1.3125275,732.0801 1.3125275,843.80991 c 0,114.50838 92.8353595,207.31249 207.3437425,207.31249 42.6828,0 82.3734,-12.8891 115.34375,-35 5.8075,-3.8947 7.64395,-5.0332 13.40625,-7.875 5.5785,-2.7511 12.50665,-4.6562 16.40625,-4.6562 l 129.25,0 3.875,0 129.28125,0 c 3.8996,0 10.7965,1.9051 16.375,4.6562 5.7623,2.8418 7.63,3.9803 13.4375,7.875 32.9704,22.1109 72.6297,35 115.3125,35 114.5084,0 207.3438,-92.80411 207.3437,-207.31249 0,-111.72981 -88.3689,-202.80149 -199.0312,-207.15625 l 0,-0.1875 -8.3125,0 -274.40625,0 -3.875,0 -274.40625,0 -8.3125,0 z"
       id="path4944"
       inkscape:connector-curvature="0" />
    <path
       sodipodi:type="arc"
       style="fill:#747b81;fill-opacity:1;stroke:none"
       id="path5603"
       sodipodi:cx="1241.7771"
       sodipodi:cy="545.25275"
       sodipodi:rx="144.68755"
       sodipodi:ry="144.68755"
       d="m 1386.4646,545.25275 a 144.68755,144.68755 0 1 1 -289.375,0 144.68755,144.68755 0 1 1 289.375,0 z"
       transform="matrix(1.2565349,0,0,1.2565349,-797.66052,158.67135)" />
    <path
       style="fill:#c4c1bc;fill-opacity:1;stroke:none"
       d="m 654.10887,635.77417 40.3204,0 33.9345,0 36.7312,0 c 0,0 2.6731,-0.0383 4.0088,0 3.775,0.10826 7.5469,0.34337 11.311,0.64927 3.465,0.2816 6.7972,0.62384 10.3722,1.09142 3.6295,0.51893 6.6207,0.79185 9.9035,1.36446 2.632,0.45908 5.245,1.02958 7.8415,1.65877 2.6655,0.64592 5.3237,1.40889 7.9363,2.17097 2.1519,0.6277 4.2502,1.28931 6.3614,1.97763 3.6865,1.20191 7.9359,2.65995 11.0088,3.75751 1.7036,0.63406 3.0398,1.14299 4.9481,1.92136 1.9084,0.77837 4.3791,1.8085 6.4892,2.77552 2.1849,1.0013 4.3896,2.0437 6.5109,3.10794 1.9984,1.00257 4.0237,2.04475 5.9658,3.08865 0.9377,0.50399 1.8069,0.96055 2.7182,1.44201 0.6429,0.33974 1.2851,0.69812 1.9281,1.0465 0.335,0.18151 1.0053,0.54386 1.0053,0.54386 l 0.6592,-5.45497 c -0.2656,-0.81403 -1.0099,-1.40516 -1.6607,-1.73218 -1.1279,-0.70484 -2.1553,-1.31828 -3.2339,-1.97588 -1.4439,-0.88033 -2.8666,-1.79666 -4.3343,-2.63684 -1.0068,-0.57635 -2.0284,-1.12774 -3.0653,-1.64803 -1.2301,-0.61726 -2.4981,-1.1561 -3.7411,-1.74691 -1.0141,-0.482 -1.9695,-0.97162 -3.0323,-1.46674 -1.0628,-0.49512 -0.8197,-0.46399 -3.3455,-1.49971 -2.5258,-1.03572 -8.4374,-3.12854 -11.9124,-4.44119 -2.6724,-0.9451 -4.0954,-1.3878 -5.9028,-2.01907 -3.3015,-1.05884 -6.1511,-1.69749 -10.3496,-2.80165 -2.5408,-0.66819 -3.7782,-1.18612 -6.6416,-1.68099 -2.5356,-0.43822 -4.4983,-0.88747 -6.4372,-1.16445 l -2.4127,-0.36822 c 0,0 -1.7733,-0.2715 -3.0983,-0.44496 -1.325,-0.17346 -3.5086,-0.44201 -4.8542,-0.57398 -1.516,-0.14464 -2.5805,-0.29828 -5.9935,-0.70817 -3.413,-0.4099 -7.8908,-0.70566 -11.783,-1.03026 -1.974,-0.16575 -6.2427,-0.37388 -6.2427,-0.37388 l -12.3932,0 -16.4967,0 -15.4256,0 -15.03,0 -15.6727,0 -14.8323,0 -10.5638,0 -2.7193,0 -3.4773,0.31313 -2.6039,0.95585 -1.7469,1.3349 -1.0053,1.54091 z"
       id="path5631"
       inkscape:connector-curvature="0"
       sodipodi:nodetypes="ccccaacaasaczssssscccaaasczccsscczczccccccccccccccc" />
    <path
       style="fill:#c4c1bc;fill-opacity:1;stroke:none"
       d="m 315.9055,635.77417 -40.32035,0 -33.9345,0 -36.7312,0 c 0,0 -2.6731,-0.0383 -4.0088,0 -3.775,0.10826 -7.5469,0.34337 -11.31099,0.64927 -3.465,0.2816 -6.7972,0.62384 -10.3722,1.09142 -3.6295,0.51893 -6.6207,0.79185 -9.9035,1.36446 -2.632,0.45908 -5.245,1.02958 -7.8415,1.65877 -2.6655,0.64592 -5.3237,1.40889 -7.9363,2.17097 -2.1519,0.6277 -4.2502,1.28931 -6.3614,1.97763 -3.6865,1.20191 -7.9359,2.65995 -11.0088,3.75751 -1.7036,0.63406 -3.0398,1.14299 -4.9481,1.92136 -1.9084,0.77837 -4.3791,1.8085 -6.4892,2.77552 -2.1849,1.0013 -4.3896,2.0437 -6.5109,3.10794 -1.9984,1.00257 -4.0237,2.04475 -5.9658,3.08865 -0.9377,0.50399 -1.8069,0.96055 -2.7182,1.44201 -0.6429,0.33974 -1.2851,0.69812 -1.9281,1.0465 -0.335,0.18151 -1.0053,0.54386 -1.0053,0.54386 l -0.6592,-5.45497 c 0.2656,-0.81403 1.0099,-1.40516 1.6607,-1.73218 1.1279,-0.70484 2.1553,-1.31828 3.2339,-1.97588 1.4439,-0.88033 2.8666,-1.79666 4.3343,-2.63684 1.0068,-0.57635 2.0284,-1.12774 3.0653,-1.64803 1.2301,-0.61726 2.4981,-1.1561 3.7411,-1.74691 1.0141,-0.482 1.9695,-0.97162 3.0323,-1.46674 1.0628,-0.49512 0.8197,-0.46399 3.3455,-1.49971 2.5258,-1.03572 8.4374,-3.12854 11.9124,-4.44119 2.6724,-0.9451 4.0954,-1.3878 5.9028,-2.01907 3.3015,-1.05884 6.1511,-1.69749 10.3496,-2.80165 2.5408,-0.66819 3.7782,-1.18612 6.6416,-1.68099 2.5356,-0.43822 4.4983,-0.88747 6.4372,-1.16445 l 2.4127,-0.36822 c 0,0 1.7733,-0.2715 3.0983,-0.44496 1.325,-0.17346 3.5086,-0.44201 4.8542,-0.57398 1.516,-0.14464 2.5805,-0.29828 5.9935,-0.70817 3.413,-0.4099 7.89079,-0.70566 11.78299,-1.03026 1.974,-0.16575 6.2427,-0.37388 6.2427,-0.37388 l 12.3932,0 16.4967,0 15.4256,0 15.03,0 15.6727,0 14.8323,0 10.56375,0 2.7193,0 3.4773,0.31313 2.6039,0.95585 1.7469,1.3349 1.0053,1.54091 z"
       id="path5631-7"
       inkscape:connector-curvature="0"
       sodipodi:nodetypes="ccccaacaasaczssssscccaaasczccsscczczccccccccccccccc" />
    <path
       sodipodi:type="arc"
       style="fill:none;stroke:#747b81;stroke-opacity:1"
       id="path5695"
       sodipodi:cx="578.75018"
       sodipodi:cy="464.70502"
       sodipodi:rx="102.92207"
       sodipodi:ry="102.92207"
       d="m 681.67226,464.70502 a 102.92207,102.92207 0 1 1 -205.84415,0 102.92207,102.92207 0 1 1 205.84415,0 z"
       transform="matrix(1.1159421,0,0,1.1159421,-438.51308,325.21656)" />
    <path
       inkscape:connector-curvature="0"
       style="fill:#485053;fill-opacity:1;stroke:#1a1c1b;stroke-width:3;stroke-linecap:butt;stroke-linejoin:bevel;stroke-miterlimit:4;stroke-opacity:1;stroke-dasharray:none"
       d="m 190.0261,762.87858 c -4.56016,0 -8.21875,3.65859 -8.21875,8.21875 l 0,47.1563 -47.15625,0 c -4.56016,0 -8.25,3.6898 -8.25,8.25 l 0,34.5937 c 0,4.5602 3.68984,8.2187 8.25,8.2187 l 47.15625,0 0,47.1563 c 0,4.5602 3.65859,8.25 8.21875,8.25 l 34.625,0 c 4.56016,0 8.21875,-3.6898 8.21875,-8.25 l 0,-47.1563 47.15625,0 c 4.56016,0 8.25,-3.6585 8.25,-8.2187 l 0,-34.5937 c 0,-4.5602 -3.68984,-8.25 -8.25,-8.25 l -47.15625,0 0,-47.1563 c 0,-4.56016 -3.65859,-8.21875 -8.21875,-8.21875 l -34.625,0 z"
       id="rect4752-7" />
    <path
       style="fill:#485053;fill-opacity:1;stroke:#1a1c1b;stroke-opacity:1"
       inkscape:transform-center-x="-5.1055901"
       inkscape:transform-center-y="2.3103264"
       d="m 247.1497,860.29635 0.031,-32.9918 32.5954,16.5197 z"
       id="path6000"
       inkscape:connector-curvature="0" />
    <path
       style="fill:#485053;fill-opacity:1;stroke:#1a1c1b;stroke-opacity:1"
       inkscape:transform-center-x="5.1055901"
       inkscape:transform-center-y="2.3103264"
       d="m 167.5275,860.29636 -0.031,-32.9918 -32.5954,16.5197 z"
       id="path6000-8"
       inkscape:connector-curvature="0" />
    <path
       style="fill:#485053;fill-opacity:1;stroke:#1a1c1b;stroke-opacity:1"
       inkscape:transform-center-x="-2.3103301"
       inkscape:transform-center-y="-5.1055936"
       d="m 223.8345,804.00498 -32.9918,-0.031 16.5197,-32.5954 z"
       id="path6000-5"
       inkscape:connector-curvature="0" />
    <path
       style="fill:#485053;fill-opacity:1;stroke:#1a1c1b;stroke-opacity:1"
       inkscape:transform-center-x="-2.3103301"
       inkscape:transform-center-y="5.1055936"
       d="m 223.8345,883.59593 -32.9918,0.031 16.5197,32.5954 z"
       id="path6000-5-9"
       inkscape:connector-curvature="0" />
    <rect
       style="fill:#c4c1bc;fill-opacity:1;stroke:none"
       id="rect6093-8"
       width="210.52827"
       height="93.468582"
       x="-34.785816"
       y="1030.5923"
       ry="46.734291"
       transform="matrix(0.78928545,-0.61402645,0.61402645,0.78928545,0,0)" />
    <path
       sodipodi:type="arc"
       style="fill:#014da3;fill-opacity:1;stroke:#1a1c1b;stroke-width:0.7851003;stroke-miterlimit:4;stroke-opacity:1;stroke-dasharray:none"
       id="path6149"
       sodipodi:cx="1216.689"
       sodipodi:cy="468.91046"
       sodipodi:rx="28.928564"
       sodipodi:ry="28.928564"
       d="m 1245.6175,468.91046 a 28.928564,28.928564 0 1 1 -57.8571,0 28.928564,28.928564 0 1 1 57.8571,0 z"
       transform="matrix(1.2737226,0,0,1.2737226,-786.46326,173.91218)" />
    <path
       sodipodi:type="arc"
       style="fill:#00926d;fill-opacity:1;stroke:#1a1c1b;stroke-width:0.7851003;stroke-miterlimit:4;stroke-opacity:1;stroke-dasharray:none"
       id="path6149-3"
       sodipodi:cx="1216.689"
       sodipodi:cy="468.91046"
       sodipodi:rx="28.928564"
       sodipodi:ry="28.928564"
       d="m 1245.6175,468.91046 a 28.928564,28.928564 0 1 1 -57.8571,0 28.928564,28.928564 0 1 1 57.8571,0 z"
       transform="matrix(1.2737226,0,0,1.2737226,-878.7162,245.64936)" />
    <rect
       style="fill:#c4c1bc;fill-opacity:1;stroke:none"
       id="rect6093-8-7"
       width="210.52827"
       height="93.468582"
       x="-5.8200593"
       y="1142.7551"
       ry="46.734291"
       transform="matrix(0.78928545,-0.61402645,0.61402645,0.78928545,0,0)" />
    <path
       sodipodi:type="arc"
       style="fill:#e03c4b;fill-opacity:1;stroke:#1a1c1b;stroke-width:0.7851003;stroke-miterlimit:4;stroke-opacity:1;stroke-dasharray:none"
       id="path6149-1"
       sodipodi:cx="1216.689"
       sodipodi:cy="468.91046"
       sodipodi:rx="28.928564"
       sodipodi:ry="28.928564"
       d="m 1245.6175,468.91046 a 28.928564,28.928564 0 1 1 -57.8571,0 28.928564,28.928564 0 1 1 57.8571,0 z"
       transform="matrix(1.2737226,0,0,1.2737226,-694.72988,244.65501)" />
    <path
       sodipodi:type="arc"
       style="fill:#ffbc54;fill-opacity:1;stroke:#1a1c1b;stroke-width:0.7851003;stroke-miterlimit:4;stroke-opacity:1;stroke-dasharray:none"
       id="path6149-3-8"
       sodipodi:cx="1216.689"
       sodipodi:cy="468.91046"
       sodipodi:rx="28.928564"
       sodipodi:ry="28.928564"
       d="m 1245.6175,468.91046 a 28.928564,28.928564 0 1 1 -57.8571,0 28.928564,28.928564 0 1 1 57.8571,0 z"
       transform="matrix(1.2737226,0,0,1.2737226,-786.98288,316.39217)" />
    <rect
       style="fill:#485053;fill-opacity:1;stroke:none"
       id="rect6211-4"
       width="81.50676"
       height="30.617825"
       x="-166.43669"
       y="983.2132"
       ry="15.308912"
       transform="matrix(0.79913723,-0.60114864,0.60114864,0.79913723,0,0)" />
    <rect
       style="fill:#485053;fill-opacity:1;stroke:none"
       id="rect6211-4-4"
       width="81.50676"
       height="30.617825"
       x="-250.57005"
       y="919.92401"
       ry="15.308912"
       transform="matrix(0.79913723,-0.60114864,0.60114864,0.79913723,0,0)" />
    <text
       xml:space="preserve"
       style="font-size:22px;font-style:italic;font-variant:normal;font-weight:normal;font-stretch:normal;text-align:start;line-height:125%;letter-spacing:0px;word-spacing:0px;writing-mode:lr-tb;text-anchor:start;fill:#747b81;fill-opacity:1;stroke:#747b81;stroke-opacity:1;font-family:Agency FB;-inkscape-font-specification:Agency FB Italic"
       x="356.987"
       y="950.38275"
       id="text3017-7"
       sodipodi:linespacing="125%"><tspan
         sodipodi:role="line"
         id="tspan3810"
         x="356.987"
         y="950.38275">S E L E C T</tspan></text>
    <text
       xml:space="preserve"
       style="font-size:22px;font-style:italic;font-variant:normal;font-weight:normal;font-stretch:normal;text-align:start;line-height:125%;letter-spacing:0px;word-spacing:0px;writing-mode:lr-tb;text-anchor:start;fill:#747b81;fill-opacity:1;stroke:#747b81;stroke-opacity:1;font-family:Agency FB;-inkscape-font-specification:Agency FB Italic"
       x="467.78879"
       y="950.38275"
       id="text3017-7-2"
       sodipodi:linespacing="125%"><tspan
         sodipodi:role="line"
         id="tspan3833"
         x="467.78879"
         y="950.38275">S T A R T</tspan></text>
    <g
       transform="matrix(0.04254447,0,0,-0.04254447,277.66869,762.30998)"
       id="g4412"
       style="fill:#747b81;fill-opacity:1">
      <path
         inkscape:connector-curvature="0"
         id="path3868"
         style="fill:#747b81;fill-opacity:1;fill-rule:nonzero;stroke:none"
         d="m 258.672,1225.59 c 0,83.71 133.996,151.62 299.32,151.62 165.586,0 299.574,-67.91 299.574,-151.62 0,-83.98 -133.988,-151.64 -299.574,-151.64 -165.324,0 -299.32,67.66 -299.32,151.64" />
      <path
         inkscape:connector-curvature="0"
         id="path3870"
         style="fill:#747b81;fill-opacity:1;fill-rule:nonzero;stroke:none"
         d="m 812.027,944.961 c 0,87.929 140.84,159.269 314.593,159.269 173.73,0 314.84,-71.34 314.84,-159.269 0,-87.922 -141.11,-159.27 -314.84,-159.27 -173.753,0 -314.593,71.348 -314.593,159.27" />
      <path
         inkscape:connector-curvature="0"
         id="path3872"
         style="fill:#747b81;fill-opacity:1;fill-rule:nonzero;stroke:none"
         d="m 941.016,1294.03 c 151.644,5.79 272.994,130.83 272.994,284.06 0,156.89 -127.41,284.3 -284.303,284.3 -155.859,0 -282.473,-125.3 -284.32,-280.89 3.691,0.26 7.379,0.26 11.324,0.26 156.898,0 284.305,-127.14 284.305,-284.3 l 0,-3.43" />
      <path
         inkscape:connector-curvature="0"
         id="path3874"
         style="fill:#747b81;fill-opacity:1;fill-rule:nonzero;stroke:none"
         d="m 1494.11,1013.14 c 147.68,5.8 265.62,127.42 265.62,276.68 0,152.95 -123.73,276.94 -276.68,276.94 -151.63,0 -274.84,-122.16 -276.67,-273.52 3.68,0.27 7.36,0.27 11.05,0.27 152.69,0 276.68,-123.99 276.68,-276.95 l 0,-3.42" />
      <path
         inkscape:connector-curvature="0"
         id="path3876"
         style="fill:#747b81;fill-opacity:1;fill-rule:nonzero;stroke:none"
         d="m 5781.65,992.352 279.58,0 19.49,122.138 -137.68,0 56.59,332.75 137.68,0 19.47,103.19 -137.68,0 60.29,305.38 137.68,0 19.48,122.14 -260.61,0 -194.29,-985.598" />
      <path
         inkscape:connector-curvature="0"
         id="path3878"
         style="fill:#747b81;fill-opacity:1;fill-rule:nonzero;stroke:none"
         d="m 3279.74,992.352 279.56,0 19.48,122.138 -137.67,0 56.6,332.75 137.67,0 19.49,103.19 -137.69,0 60.29,305.38 137.67,0 19.48,122.14 -260.61,0 -194.27,-985.598" />
      <path
         inkscape:connector-curvature="0"
         id="path3880"
         style="fill:#747b81;fill-opacity:1;fill-rule:nonzero;stroke:none"
         d="m 5535.25,992.352 142.15,0 155.59,863.458 74.76,0 19.22,122.14 -292.2,0 -23.43,-122.14 77.39,0 -153.48,-863.458" />
      <path
         inkscape:connector-curvature="0"
         id="path3882"
         style="fill:#747b81;fill-opacity:1;fill-rule:nonzero;stroke:none"
         d="m 6576.14,1977.95 -96.35,-514.65 -64.49,514.65 -124.26,0 -187.16,-985.598 143.21,0 115.29,571.518 45.55,-571.518 124.26,0 187.17,985.598 -143.22,0" />
      <path
         inkscape:connector-curvature="0"
         id="path3884"
         style="fill:#747b81;fill-opacity:1;fill-rule:nonzero;stroke:none"
         d="m 4756.56,1977.95 -96.35,-514.65 -64.49,514.65 -124.26,0 -187.17,-985.598 143.21,0 115.31,571.518 45.54,-571.518 124.25,0 187.17,985.598 -143.21,0" />
      <path
         inkscape:connector-curvature="0"
         id="path3886"
         style="fill:#747b81;fill-opacity:1;fill-rule:nonzero;stroke:none"
         d="m 5438.9,1977.95 -96.34,-514.65 -64.49,514.65 -124.26,0 -187.18,-985.598 143.21,0 115.31,571.518 45.54,-571.518 124.25,0 187.18,985.598 -143.22,0" />
      <path
         inkscape:connector-curvature="0"
         id="path3888"
         style="fill:#747b81;fill-opacity:1;fill-rule:nonzero;stroke:none"
         d="m 5088.53,1977.95 -124.26,0 -187.17,-985.598 124.25,0 187.18,985.598" />
      <path
         inkscape:connector-curvature="0"
         id="path3890"
         style="fill:#747b81;fill-opacity:1;fill-rule:nonzero;stroke:none"
         d="m 7324.57,1797.89 c 6.31,36.59 31.58,66.33 68.18,66.33 36.6,0 61.33,-29.74 55.01,-66.33 l -116.08,-644.44 c -6.33,-36.58 -41.07,-66.34 -77.66,-66.34 -36.6,0 -51.86,29.76 -45.54,66.34 l 116.09,644.44 z m -121.37,81.88 -139.24,-795.81 c -8.97,-50.81 25.52,-91.608 76.59,-91.608 l 204.29,0 c 51.33,0 100.56,40.798 110.03,91.608 l 150.84,795.81 c 10.28,54.23 -24.48,98.18 -77.64,98.18 l -211.41,0 c -53.17,0 -103.97,-43.95 -113.46,-98.18" />
      <path
         inkscape:connector-curvature="0"
         id="path3892"
         style="fill:#747b81;fill-opacity:1;fill-rule:nonzero;stroke:none"
         d="m 2555,1108.7 154.01,869.25 -124.52,0 -154.79,-893.99 c -8.96,-50.81 25.53,-91.608 76.6,-91.608 l 185.33,0 c 51.33,0 100.57,40.798 110.04,91.608 l 165.84,893.99 -116.35,0 -157.95,-869.25 c -2.37,-12.64 -14.74,-22.9 -27.38,-22.9 l -91.61,0 c -12.9,0 -21.33,10.26 -19.22,22.9" />
      <path
         inkscape:connector-curvature="0"
         id="path3894"
         style="fill:#747b81;fill-opacity:1;fill-rule:nonzero;stroke:none"
         d="m 6745.15,1087.11 145.32,777.11 56.85,0 c 36.61,0 61.35,-29.74 55.02,-66.33 l -122.65,-644.44 c -6.33,-36.58 -41.09,-66.34 -77.68,-66.34 l -56.86,0 z m 38.71,890.84 -187.17,-985.598 283.78,0 c 51.34,0 100.56,40.798 110.04,91.608 l 150.84,795.81 c 10.25,54.23 -24.48,98.18 -77.66,98.18 l -279.83,0" />
      <path
         inkscape:connector-curvature="0"
         id="path3896"
         style="fill:#747b81;fill-opacity:1;fill-rule:nonzero;stroke:none"
         d="m 3093.35,1532.01 c -11.05,0 -18.69,7.37 -19.48,17.64 0,1.59 0,3.42 0.27,5.26 l 57.37,298 c 5.28,4.48 11.86,7.37 18.44,7.37 l 60.54,0 c 13.17,0 40.81,-29.74 38.44,-43.17 l -51.6,-243.24 c -2.36,-12.64 -18.69,-41.86 -31.32,-41.86 l -72.66,0 z m 61.86,445.94 -124.25,0 -187.17,-985.598 124.25,0 84.77,446.198 157.95,0 c 51.33,0 100.56,41.07 110.03,91.61 l 67.67,349.61 c 10.25,54.23 -24.49,98.18 -77.67,98.18 l -155.58,0 z m -81.34,-428.3 0.27,5.26 c -0.27,-1.84 -0.27,-3.67 -0.27,-5.26" />
      <path
         inkscape:connector-curvature="0"
         id="path3898"
         style="fill:#747b81;fill-opacity:1;fill-rule:nonzero;stroke:none"
         d="m 3908.63,1852.91 c 5.27,4.48 11.85,7.37 18.44,7.37 l 56.59,0 c 13.17,0 40.79,-29.74 38.18,-43.17 l -51.34,-243.24 c -2.37,-12.64 -33.69,-41.86 -46.33,-41.86 l -53.7,0 c -11.07,0 -18.69,7.37 -19.49,17.64 0,1.59 0,3.42 0.27,5.26 l 57.38,298 z m 87.67,-397.25 -7.9,0 c 35.54,13.96 102.4,36.87 109.51,74.5 l 67.66,349.61 c 10.26,54.23 -24.49,98.18 -77.67,98.18 l -279.82,0 -187.18,-985.598 124.26,0 84.77,446.198 88.19,0 c 11.58,-10.79 12.63,-30.8 14.2,-40.8 2.38,-14.48 4.75,-32.9 2.91,-47.39 -1.58,-14.47 -67.93,-358.008 -67.93,-358.008 l 124.25,0 c 0,0 70.31,374.078 70.31,380.128 0.25,6.06 0.25,25.53 -6.59,36.07 -4.49,6.84 -12.63,22.9 -21.6,28.7 -17.36,11.05 -37.37,18.41 -37.37,18.41 z m -145.32,93.99 0.27,5.26 c -0.27,-1.84 -0.27,-3.67 -0.27,-5.26" />
      <path
         inkscape:connector-curvature="0"
         id="path3900"
         style="fill:#747b81;fill-opacity:1;fill-rule:nonzero;stroke:none"
         d="m 3824.13,865.461 -11.58,-219.02 -36.85,0 4.72,50.539 -21.84,0 -19.21,-50.539 -32.65,0 80.56,219.02 36.85,0 z m 2717.27,-13.43 c 2.12,12.117 13.16,21.86 25.01,21.86 l 42.64,0 c 11.58,0 19.22,-9.743 17.11,-21.86 l -10.26,-53.961 -26.59,0 6.05,35.809 c 1.33,8.152 -3.95,14.73 -12.11,14.73 -8.15,0 -15.8,-6.578 -17.11,-14.73 l -4.47,-26.07 c -1.04,-1.579 1.05,-8.95 2.63,-9.739 3.42,-2.101 37.64,-58.968 37.64,-63.191 1.06,-2.109 1.33,-3.418 1.33,-4.199 -1.33,-7.11 -10.55,-55.551 -10.55,-55.551 -2.09,-11.059 -12.89,-20.277 -24.2,-20.277 l -41.08,0 c -11.31,0 -18.94,9.218 -16.83,20.277 l 9.47,55.551 28.69,0 -7.11,-40.02 c -1.31,-8.148 4.22,-14.73 12.11,-14.73 8.16,0 15.8,6.582 17.37,14.73 l 5.54,32.391 c -5.28,13.41 -39.49,61.84 -41.6,73.437 -1.58,1.313 -2.37,8.422 -2.11,13.703 0.26,5.789 8.43,41.84 8.43,41.84 z m -540.19,0 c 2.11,12.117 13.17,21.86 25,21.86 l 42.65,0 c 11.58,0 19.49,-9.743 17.12,-21.86 l -10.27,-53.961 -26.59,0 6.06,35.809 c 1.32,8.152 -3.95,14.73 -12.11,14.73 -8.17,0 -15.8,-6.578 -17.11,-14.73 l -4.48,-26.07 c -0.8,-1.579 1.31,-8.95 2.64,-9.739 3.67,-2.101 37.9,-58.968 37.9,-63.191 0.79,-2.109 1.32,-3.418 1.07,-4.199 -1.07,-7.11 -10.55,-55.551 -10.55,-55.551 -2.1,-11.059 -12.89,-20.277 -24.22,-20.277 l -41.07,0 c -11.31,0 -18.94,9.218 -16.84,20.277 l 9.74,55.551 28.7,0 -7.39,-40.02 c -1.3,-8.148 4.22,-14.73 12.39,-14.73 7.89,0 15.8,6.582 17.11,14.73 l 5.52,32.391 c -5.27,13.41 -39.49,61.84 -41.59,73.437 -1.58,1.313 -2.37,8.422 -2.11,13.703 0.28,5.789 8.43,41.84 8.43,41.84 z m 997.44,-197.179 42.92,219.039 57.66,0 -4.47,-27.121 -30.29,0 -13.42,-67.918 30.54,0 -4.22,-22.903 -30.54,0 -12.63,-73.969 30.54,0 -4.22,-27.128 -61.87,0 z m -233.48,0 33.95,191.918 -17.12,0 5.02,27.121 64.75,0 -4.21,-27.121 -16.58,0 -34.5,-191.918 -31.31,0 z m 612.84,217.988 34.74,0.519 -37.11,-218.507 -27.38,0 17.64,115.839 -48.71,-115.839 -18.95,0 -6.05,118.738 -21.33,-118.738 -31.59,0 41.34,219.039 36.05,0 5.8,-126.903 55.55,125.852 z m -1119.6,-118.738 -14.22,119.789 35.27,0 4.21,-83.2 45.28,83.2 34.23,0 -71.08,-126.621 -17.64,-92.418 -31.59,0 15.54,99.25 z M 3228.4,747.27 c 0,0 11.85,-1.86 12.89,-4.219 1.32,-2.371 1.58,-8.692 1.58,-10 0,-1.321 -15.53,-86.61 -15.53,-86.61 l -27.63,0 c 0,0 14.73,76.329 15.26,79.5 0.26,3.418 -0.26,7.368 -0.79,10.52 -0.25,2.367 -0.53,6.848 -3.16,9.219 l -19.48,0 -18.68,-99.239 -27.38,0 41.32,219.02 61.87,0 c 11.58,0 19.47,-9.731 17.11,-21.859 l -15,-77.653 c -1.58,-8.418 -16.33,-15.519 -24.22,-18.679 l 1.84,0 z m -357.5,-100.829 42.91,219.02 57.65,0 -4.2,-27.109 -30.55,0 -13.41,-67.922 30.52,0 -4.2,-22.91 -30.54,0 -12.63,-73.969 30.54,0 -4.22,-27.11 -61.87,0 z m 1842.75,217.957 35.01,0.532 -37.12,-218.489 -27.38,0 17.65,115.829 -48.7,-115.829 -19.21,0 -5.79,118.719 -21.34,-118.719 -31.58,0 41.32,219.02 35.8,0 6.05,-126.891 55.29,125.828 z m -640.49,1.063 -41.6,-219.02 -27.37,0 41.34,219.02 27.63,0 z m 1239.13,0 31.58,0 -41.33,-219.02 -27.38,0 -10.27,127.149 -25.52,-127.149 -31.6,0 41.6,219.02 27.37,0 14.23,-114.25 21.32,114.25 z m -954.28,0 31.58,0 -41.32,-219.02 -27.65,0 -10,127.149 -25.54,-127.149 -31.59,0 41.32,219.02 27.66,0 14.22,-114.25 21.32,114.25 z m 1157.5,-219.02 33.96,191.911 -17.11,0 5.26,27.109 64.5,0 -4.22,-27.109 -16.58,0 -34.22,-191.911 -31.59,0 z m -3112.14,219.02 31.86,0 -41.6,-219.02 -27.38,0 -10,127.149 -25.54,-127.149 -31.58,0 41.32,219.02 27.38,0 14.48,-114.25 21.06,114.25 z m 2521.68,-219.02 42.91,219.02 57.65,0 -4.21,-27.109 -30.54,0 -13.43,-67.922 30.55,0 -4.23,-22.91 -30.54,0 -12.63,-73.969 30.53,0 -4.21,-27.11 -61.85,0 z m -2895.24,0 42.92,219.02 57.66,0 -4.22,-27.109 -30.54,0 -13.17,-67.922 30.29,0 -4.22,-22.91 -30.54,0 -12.36,-73.969 30.27,0 -4.22,-27.11 -61.87,0 z m 1412.88,0 33.96,191.911 -17.12,0 5.26,27.109 64.51,0 -4.22,-27.109 -16.58,0 -34.23,-191.911 -31.58,0 z m -833.73,0 33.97,191.911 -17.11,0 5.26,27.109 64.5,0 -4.21,-27.109 -16.59,0 -34.22,-191.911 -31.6,0 z m -656.02,260.61 0,-322.211 5534.58,0 0,322.211 -5534.58,0 z m 1813.54,-189 15.8,0 5.25,55.539 -21.05,-55.539 z m -565.99,48.418 11.85,0 c 2.89,0 9.74,6.332 10.26,9.222 l 11.33,53.969 c 0.52,3.16 -5.53,9.731 -8.42,9.731 l -12.38,0 c -1.58,0 -3.16,-0.789 -4.22,-1.84 l -12.63,-66.082 c 0,-0.52 0,-0.778 0,-1.289 0,-2.11 1.85,-3.711 4.21,-3.711" />
      <path
         inkscape:connector-curvature="0"
         id="path3902"
         style="fill:#747b81;fill-opacity:1;fill-rule:nonzero;stroke:none"
         d="m 2114.06,1879.77 c 0,0 -36.85,-162.43 -37.91,-188.49 -1.05,-23.69 2.37,-55.82 9.75,-61.87 9.47,-52.12 182.95,-293.25 177.95,-330.11 -4.73,-36.86 -24.74,-145.85 -24.74,-145.85 -6.32,-36.58 -31.6,-66.34 -68.18,-66.34 -36.6,0 -61.35,29.76 -55.04,66.34 l 32.39,180.08 -129.77,0 -43.71,-249.57 c -8.95,-50.81 25.54,-91.608 76.61,-91.608 l 185.33,0 c 51.33,0 100.55,40.798 110.03,91.608 0,0 47.65,232.98 47.39,249.57 -0.27,16.58 -5.27,18.41 -5.27,18.41 l 0,0.53 c 0,18.96 -154.79,274.83 -170.58,284.32 -6.84,3.94 -12.11,28.69 -12.37,43.96 -0.27,15.27 20,117.14 20,117.14 6.32,36.59 41.07,66.33 77.66,66.33 36.59,0 51.85,-29.74 45.55,-66.33 l -27.91,-161.1 130.3,0 46.07,242.98 c 10.27,54.23 -24.48,98.18 -77.65,98.18 l -192.44,0 c -53.18,0 -103.98,-43.95 -113.46,-98.18" />
    </g>
    <g
       id="g4672"
       transform="translate(-435.39438,121.71385)"
       style="fill:#d3d4d6;fill-opacity:1;stroke:#d3d4d6;stroke-opacity:1">
      <text
         sodipodi:linespacing="125%"
         id="text3017-7-6-55"
         y="773.92426"
         x="1036.9091"
         style="font-size:32px;font-style:italic;font-variant:normal;font-weight:normal;font-stretch:normal;text-align:start;line-height:125%;letter-spacing:0px;word-spacing:0px;writing-mode:lr-tb;text-anchor:start;fill:#d3d4d6;fill-opacity:1;stroke:#d3d4d6;stroke-opacity:1;font-family:Agency FB;-inkscape-font-specification:Agency FB Italic"
         xml:space="preserve"><tspan
           y="773.92426"
           x="1036.9091"
           id="tspan3810-4-5"
           sodipodi:role="line">Y</tspan></text>
      <text
         sodipodi:linespacing="125%"
         id="text3017-7-6-5-3"
         y="619.44794"
         x="1248.5144"
         style="font-size:32px;font-style:italic;font-variant:normal;font-weight:normal;font-stretch:normal;text-align:start;line-height:125%;letter-spacing:0px;word-spacing:0px;writing-mode:lr-tb;text-anchor:start;fill:#d3d4d6;fill-opacity:1;stroke:#d3d4d6;stroke-opacity:1;font-family:Agency FB;-inkscape-font-specification:Agency FB Italic"
         xml:space="preserve"><tspan
           y="619.44794"
           x="1248.5144"
           id="tspan3810-4-0-4"
           sodipodi:role="line">X</tspan></text>
      <text
         sodipodi:linespacing="125%"
         id="text3017-7-6-2-3"
         y="849.17841"
         x="1130.8574"
         style="font-size:32px;font-style:italic;font-variant:normal;font-weight:normal;font-stretch:normal;text-align:start;line-height:125%;letter-spacing:0px;word-spacing:0px;writing-mode:lr-tb;text-anchor:start;fill:#d3d4d6;fill-opacity:1;stroke:#d3d4d6;stroke-opacity:1;font-family:Agency FB;-inkscape-font-specification:Agency FB Italic"
         xml:space="preserve"><tspan
           y="849.17841"
           x="1130.8574"
           id="tspan3810-4-2-5"
           sodipodi:role="line">B</tspan></text>
      <text
         sodipodi:linespacing="125%"
         id="text3017-7-6-4-9"
         y="692.31165"
         x="1341.6843"
         style="font-size:32px;font-style:italic;font-variant:normal;font-weight:normal;font-stretch:normal;text-align:start;line-height:125%;letter-spacing:0px;word-spacing:0px;writing-mode:lr-tb;text-anchor:start;fill:#d3d4d6;fill-opacity:1;stroke:#d3d4d6;stroke-opacity:1;font-family:Agency FB;-inkscape-font-specification:Agency FB Italic"
         xml:space="preserve"><tspan
           y="692.31165"
           x="1341.6843"
           id="tspan3810-4-8-6"
           sodipodi:role="line">A</tspan></text>
    </g>
  </g>
</svg>
